<?xml version="1.0" encoding="UTF-8" standalone="no"?><!DOCTYPE svg PUBLIC "-//W3C//DTD SVG 1.1//EN" "http://www.w3.org/Graphics/SVG/1.1/DTD/svg11.dtd"><svg width="100%" height="100%" viewBox="0 0 48 48" version="1.1" xmlns="http://www.w3.org/2000/svg" xmlns:xlink="http://www.w3.org/1999/xlink" xml:space="preserve" xmlns:serif="http://www.serif.com/" style="fill-rule:evenodd;clip-rule:evenodd;stroke-linejoin:round;stroke-miterlimit:1.41421;"><g><path d="M14.172,32.414l-10.879,10.879c-0.187,0.187 -0.293,0.442 -0.293,0.707c0,0.549 0.451,1 1,1c0.265,0 0.52,-0.106 0.707,-0.293l10.879,-10.879l-1.414,-1.414Z" style="fill:#6a737b;fill-rule:nonzero;"/><path d="M44.707,17.293l-14,-14c-0.187,-0.187 -0.442,-0.293 -0.707,-0.293c-0.549,0 -1,0.451 -1,1c0,0.265 0.106,0.52 0.293,0.707l2.752,2.752l-23.856,13.316l-3.482,-3.482c-0.187,-0.187 -0.442,-0.293 -0.707,-0.293c-0.549,0 -1,0.451 -1,1c0,0.265 0.106,0.52 0.293,0.707l26,26c0.187,0.188 0.442,0.294 0.707,0.294c0.265,0 0.52,-0.106 0.707,-0.294c0.188,-0.187 0.293,-0.442 0.293,-0.707c0,-0.265 -0.105,-0.52 -0.293,-0.707l-3.482,-3.482l13.316,-23.856l2.752,2.752c0.187,0.188 0.442,0.294 0.707,0.294c0.265,0 0.52,-0.106 0.707,-0.294c0.188,-0.187 0.293,-0.442 0.293,-0.707c0,-0.265 -0.105,-0.52 -0.293,-0.707Z" style="fill:#6a737b;fill-rule:nonzero;"/></g></svg>